# xmcd
#
# Track frame offsets: 
#        150
#        14889
#        45109
#        71170
#        115943
#        151197
#        181084
#        227792
#        244237
#        269771
#        291436
#        333489
#
# Disc length: 4638 seconds
#
# Revision: 0
# Processed by: cddbd v1.5.2PL0 Copyright (c) Steve Scherf et al.
# Submitted via: ExactAudioCopy v1.2
#
DISCID=b0121c0c
DTITLE=Big Daddy Wilson - Songs from the Road
DYEAR=2018
DGENRE=Blues
TTITLE0=Wake Up (Live)
TTITLE1=Drop Down Here (Live)
TTITLE2=Miss Dorothy Lee (Live)
TTITLE3=Texas Boogie (Live)
TTITLE4=Ain't No Slave (Live)
TTITLE5=Anna Mae (Live)
TTITLE6=Walk a Mile in My Shoes (Live)
TTITLE7=Cross Creek Road (Live)
TTITLE8=Neckbone Stew (Live)
TTITLE9=7 Years (Live)
TTITLE10=Baby Don't Like (Live)
TTITLE11=I Just Need a Smile (Live)
EXTD=
EXTT0=
EXTT1=
EXTT2=
EXTT3=
EXTT4=
EXTT5=
EXTT6=
EXTT7=
EXTT8=
EXTT9=
EXTT10=
EXTT11=
PLAYORDER=
